<svg xmlns="http://www.w3.org/2000/svg" viewBox="0 0 32 32">
  <rect width="32" height="32" rx="7" fill="#0D1B2A"/>
  <path
    transform="translate(-5.23 -58.68) scale(0.1166)"
    fill="white"
    fill-rule="evenodd"
    d="M 104 529.894 C 104 530.393, 106.241 531.338, 108.980 531.995 C 114.886 533.412, 119.252 537.782, 121.208 544.237 C 123.179 550.740, 123.088 730.806, 121.111 736.500 C 118.639 743.620, 116.368 745.889, 109.919 747.682 C 106.430 748.652, 104 749.882, 104 750.678 C 104 751.788, 109.700 751.981, 136.167 751.764 C 158.989 751.577, 168.443 751.172, 168.711 750.369 C 168.922 749.733, 167.444 748.931, 165.328 748.534 C 156.732 746.921, 152.936 742.665, 151.087 732.566 C 150.415 728.898, 150 710.445, 150 684.228 L 150 641.823 175.250 642.239 C 196.605 642.590, 201.266 642.938, 205.465 644.494 C 212.177 646.982, 219.225 654.123, 221.042 660.276 C 222.029 663.618, 222.958 665, 224.218 665 C 225.881 665, 226 663.289, 226 639.427 C 226 616.093, 225.854 613.882, 224.333 614.177 C 223.382 614.361, 222.034 616.396, 221.195 618.914 C 220.373 621.380, 217.895 625.158, 215.582 627.471 C 208.925 634.128, 204.188 635, 174.684 635 L 150 635 150 585 L 150 535 181.053 535 C 214.329 535, 220.745 535.698, 231.500 540.488 C 241.081 544.755, 251.996 554.748, 255.818 562.750 C 256.672 564.538, 258.133 566, 259.065 566 C 260.933 566, 261.025 566.702, 255.725 540.500 L 253.500 529.500 178.750 529.244 C 134.527 529.092, 104 529.358, 104 529.894"
  />
</svg>
